<svg version="1.1" class="trend_item_icon" xmlns="http://www.w3.org/2000/svg" x="0px" y="0px"
	 viewBox="0 0 64 64" style="enable-background:new 0 0 64 64;" xml:space="preserve">
<g>
	<path d="M32,11c-7.6,0-13.9,6.2-13.9,13.9c0,7.6,6.2,13.9,13.9,13.9s13.9-6.2,13.9-13.9C45.9,17.2,39.6,11,32,11z M32,36.7
		c-6.5,0-11.9-5.3-11.9-11.9S25.5,13,32,13s11.9,5.3,11.9,11.9S38.5,36.7,32,36.7z"/>
	<path d="M50,28.6c1.8-0.9,3.7-1.8,3.7-3.4s-1.8-2.6-3.6-3.5c-0.9-0.4-2.3-1.2-2.4-1.6c-0.1-0.5,0.6-1.9,1.1-2.8
		c0.9-1.7,1.9-3.6,1-4.9c-0.9-1.3-3-1-4.9-0.7c-1,0.2-2.6,0.4-3,0.1c-0.4-0.3-0.6-1.9-0.7-2.9c-0.3-2-0.5-4.1-2.1-4.6
		c-1.5-0.5-2.9,0.9-4.3,2.3c-0.8,0.8-1.9,1.9-2.4,1.9c0,0,0,0,0,0c-0.5,0-1.6-1.2-2.4-2c-1.4-1.5-2.8-2.9-4.3-2.4
		c-1.6,0.5-1.9,2.5-2.2,4.5c-0.2,1-0.4,2.6-0.8,2.9c-0.4,0.3-2,0-3-0.2c-2-0.4-4-0.7-5,0.6c-1,1.3,0,3.1,0.9,4.9
		c0.4,0.9,1.2,2.4,1,2.9c-0.1,0.4-1.6,1.1-2.5,1.5c-1.8,0.9-3.7,1.8-3.7,3.4c0,1.7,1.8,2.6,3.6,3.5c0.9,0.4,2.3,1.2,2.4,1.6
		c0.1,0.5-0.6,1.9-1.1,2.8c-0.9,1.7-1.9,3.6-1,4.9c0.9,1.3,3,1,4.9,0.7c0.6-0.1,1.3-0.2,1.9-0.2l-8.1,15.3c-0.2,0.3-0.2,0.7,0.1,1
		s0.6,0.5,0.9,0.4l7.8-0.9l3.8,5.8c0.2,0.3,0.5,0.5,0.8,0.5c0,0,0.1,0,0.1,0c0.4,0,0.7-0.3,0.8-0.6l4.5-10l4.2,10
		c0.1,0.3,0.5,0.6,0.8,0.6c0,0,0.1,0,0.1,0c0.3,0,0.7-0.2,0.8-0.5l3.7-5.6L49,55c0.4,0.1,0.7-0.1,1-0.4c0.2-0.3,0.3-0.7,0.1-1
		l-7.6-15.4c0.6,0,1.5,0.2,2.1,0.3c2,0.4,4,0.7,5-0.6c1-1.3,0-3.1-0.9-4.9c-0.5-0.9-1.2-2.4-1-2.9C47.7,29.7,49.1,29,50,28.6z
		 M26.4,56.9l-2.9-4.4l1.2-3.8c0.2-0.5-0.1-1.1-0.6-1.3c-0.5-0.2-1.1,0.1-1.3,0.6l-1.2,3.7l-5.9,0.7l7-13.2c0.1,0.5,0.2,1.1,0.3,1.6
		c0.3,2,0.5,4.1,2.1,4.6c1.5,0.5,2.9-0.8,4.3-2.3l1.6,3.7L26.4,56.9z M41.8,51.9L40.3,48c-0.2-0.5-0.8-0.8-1.3-0.6
		c-0.5,0.2-0.8,0.8-0.6,1.3l1.5,4l-2.7,4.2l-6.4-15.2c0.4-0.3,0.7-0.5,0.9-0.5c0,0,0,0,0,0c0.5,0,1.6,1.2,2.4,2
		c1.2,1.3,2.4,2.5,3.7,2.5c0.2,0,0.4,0,0.6-0.1c1.6-0.5,1.9-2.5,2.2-4.5c0.1-0.4,0.2-0.9,0.3-1.4l6.4,13.1L41.8,51.9z M46.8,33.9
		c0.4,0.8,1.2,2.4,1,2.8c-0.3,0.3-2.1,0-3-0.2c-1.8-0.3-3.4-0.6-4.5,0.1c-1.1,0.8-1.3,2.4-1.6,4.2c-0.1,0.9-0.4,2.8-0.8,2.9
		c-0.4,0-1.6-1.2-2.2-1.9c-1.3-1.3-2.5-2.6-3.8-2.6c0,0,0,0,0,0c-1.3,0-2.6,1.2-3.8,2.5c-0.7,0.6-1.9,1.9-2.3,1.8
		c-0.4-0.2-0.6-2.1-0.8-3c-0.2-1.8-0.5-3.4-1.5-4.2c-1.1-0.8-2.7-0.5-4.5-0.3c-0.9,0.1-2.7,0.4-3,0.1c-0.2-0.4,0.7-2,1.1-2.8
		c0.9-1.6,1.7-3.1,1.3-4.4c-0.4-1.2-1.9-2-3.4-2.8c-0.8-0.4-2.6-1.3-2.6-1.7c0-0.4,1.8-1.3,2.6-1.7c1.6-0.8,3.1-1.5,3.5-2.7
		c0.4-1.3-0.3-2.8-1.2-4.4c-0.4-0.8-1.2-2.4-1-2.8c0.3-0.3,2.1,0,3,0.2c1.8,0.3,3.4,0.6,4.5-0.1c1.1-0.8,1.3-2.4,1.6-4.2
		C25.4,8,25.7,6.2,26.1,6c0.4,0,1.6,1.2,2.2,1.9c1.3,1.3,2.5,2.6,3.8,2.6c1.4,0,2.6-1.2,3.9-2.5c0.7-0.6,1.9-1.8,2.3-1.8
		c0.4,0.2,0.6,2.1,0.8,2.9c0.2,1.8,0.5,3.4,1.5,4.2c1.1,0.8,2.7,0.5,4.5,0.3c0.9-0.1,2.7-0.4,3-0.1c0.2,0.4-0.7,2-1.1,2.8
		c-0.9,1.6-1.7,3.1-1.3,4.4c0.4,1.2,1.9,2,3.4,2.8c0.8,0.4,2.6,1.3,2.6,1.7c0,0.4-1.8,1.3-2.6,1.7c-1.6,0.8-3.1,1.5-3.5,2.7
		C45.2,30.7,46,32.2,46.8,33.9z"/>
	<path d="M41.2,22.7c-0.1-0.4-0.5-0.7-1-0.7h-5.6L33,16.7c-0.1-0.4-0.5-0.7-1-0.7c-0.4,0-0.8,0.3-1,0.7L29.3,22h-5.6
		c-0.4,0-0.8,0.3-1,0.7s0,0.9,0.4,1.1l4.5,3.3l-1.7,5.3c-0.1,0.4,0,0.9,0.4,1.1c0.2,0.1,0.4,0.2,0.6,0.2s0.4-0.1,0.6-0.2l4.5-3.3
		l4.5,3.3c0.4,0.3,0.8,0.3,1.2,0c0.4-0.3,0.5-0.7,0.4-1.1l-1.7-5.3l4.5-3.3C41.2,23.5,41.4,23.1,41.2,22.7z M34.6,25.9
		c-0.4,0.3-0.5,0.7-0.4,1.1l1,3.1l-2.6-1.9c-0.4-0.3-0.8-0.3-1.2,0l-2.6,1.9l1-3.1c0.1-0.4,0-0.9-0.4-1.1L26.8,24H30
		c0.4,0,0.8-0.3,1-0.7l1-3.1l1,3.1c0.1,0.4,0.5,0.7,1,0.7h3.2L34.6,25.9z"/>
</g>
</svg>
