<svg version="1.1" class="trend_item_icon" xmlns="http://www.w3.org/2000/svg" x="0px" y="0px"
	 viewBox="0 0 64 64" style="enable-background:new 0 0 64 64;" xml:space="preserve">
<g id="XMLID_1_">
	<g id="XMLID_161_">
		<path id="XMLID_4_" d="M19,17L19,17l0.3,0v0H19z"/>
	</g>
	<g id="XMLID_158_">
		<path id="XMLID_24_" d="M52.2,10H18.3c-0.6,0-1.3,0.3-1.3,0.9V17h-5.2c-0.6,0-0.8,0.4-0.8,1v25.6c0,0.6,0.2,1.4,0.8,1.4H17v8.1
			c0,0.4,0.1,0.8,0.4,0.9c0.1,0.1,0.2,0.1,0.3,0.1c0.2,0,0.4-0.2,0.6-0.4L29,44h16.5c0.5,0,1.5-0.3,1.5-0.8V37h5.2
			c0.6,0,0.8-0.9,0.8-1.4V10.9C53,10.3,52.8,10,52.2,10z M45,42H28.7c-0.3,0-0.3,0.2-0.5,0.3L19,50.9v-7.3c0-0.5-0.8-0.6-1.3-0.6H13
			V19h32V42z M51,35h-4V18c0-0.5-0.9-1-1.5-1H19v-5h32V35z"/>
		<rect id="XMLID_11_" x="19" y="17" width="0.3" height="0"/>
	</g>
</g>
</svg>
