<svg version="1.1" class="trend_item_icon" xmlns="http://www.w3.org/2000/svg" x="0px" y="0px"
	 viewBox="0 0 64 64" style="enable-background:new 0 0 64 64;" xml:space="preserve">
<g>
	<path d="M32,24.6c4.1,0,7.4,3.3,7.4,7.4s-3.3,7.4-7.4,7.4s-7.4-3.3-7.4-7.4S27.9,24.6,32,24.6 M32,22.7c-5.1,0-9.3,4.2-9.3,9.3
		s4.2,9.3,9.3,9.3s9.3-4.2,9.3-9.3S37.1,22.7,32,22.7L32,22.7z"/>
	<path d="M32,15.3c4.5,0,8.7,1.7,11.8,4.9L55.7,32L43.8,43.8c-3.2,3.2-7.4,4.9-11.8,4.9s-8.7-1.7-11.8-4.9L8.3,32l11.8-11.8
		C23.3,17,27.5,15.3,32,15.3 M32,13.4c-4.8,0-9.5,1.8-13.2,5.4L5.7,32l13.2,13.2c3.6,3.6,8.4,5.4,13.2,5.4s9.5-1.8,13.2-5.4L58.3,32
		L45.2,18.8C41.5,15.2,36.8,13.4,32,13.4L32,13.4z"/>
</g>
</svg>
