<svg version="1.1" class="social_icon" xmlns="http://www.w3.org/2000/svg" x="0px" y="0px"
	 viewBox="0 0 64 64" style="enable-background:new 0 0 64 64;" xml:space="preserve">
<g>
	<g>
		<path d="M31.9,43c-6.1,0-11.1-5-11.1-11.1c0-6.1,5-11.1,11.1-11.1c6.1,0,11.1,5,11.1,11.1C43,38.1,38,43,31.9,43z M31.9,22.8
			c-5,0-9.1,4.1-9.1,9.1s4.1,9.1,9.1,9.1S41,37,41,31.9S36.9,22.8,31.9,22.8z"/>
	</g>
	<g>
		<path d="M45,22.4c-1.9,0-3.4-1.5-3.4-3.4s1.5-3.4,3.4-3.4s3.4,1.5,3.4,3.4S46.9,22.4,45,22.4z M45,17.6c-0.8,0-1.4,0.6-1.4,1.4
			s0.6,1.4,1.4,1.4s1.4-0.6,1.4-1.4S45.8,17.6,45,17.6z"/>
	</g>
	<g>
		<path d="M42.4,55.4h-21c-7.2,0-13-5.8-13-13v-21c0-7.2,5.8-13,13-13h21c7.2,0,13,5.8,13,13v21C55.4,49.6,49.5,55.4,42.4,55.4z
			 M21.4,10.4c-6.1,0-11,4.9-11,11v21c0,6.1,4.9,11,11,11h21c6.1,0,11-4.9,11-11v-21c0-6.1-4.9-11-11-11H21.4z"/>
	</g>
</g>
</svg>
