<svg version="1.1" class="trend_item_icon" xmlns="http://www.w3.org/2000/svg" x="0px" y="0px"
	 viewBox="0 0 64 64" style="enable-background:new 0 0 64 64;" xml:space="preserve">
<g>
	<g id="XMLID_290_">
		<path d="M25.5,46.8c-0.2,0-0.5-0.1-0.6-0.2c-0.2-0.2-0.4-0.5-0.4-0.8v-3.9c-4.4-2.6-7.2-7.4-7.2-12.6c0-8.1,6.6-14.7,14.7-14.7
			s14.7,6.6,14.7,14.7c0,4.9-2.4,9.3-6.3,12.1v2.2c0,0.5-0.4,0.9-0.8,1l-13.9,2.2C25.6,46.8,25.6,46.8,25.5,46.8z M25.9,40.4
			c0.4,0.2,0.6,0.5,0.6,0.9v3.3l11.9-1.9v-1.8c0-0.4,0.2-0.7,0.5-0.9c3.6-2.4,5.8-6.3,5.8-10.7c0-7-5.7-12.7-12.7-12.7
			s-12.7,5.7-12.7,12.7C19.4,33.9,21.9,38.2,25.9,40.4z"/>
	</g>
	<g id="XMLID_289_">
		<path d="M25.1,50.6c-0.5,0-0.9-0.3-1-0.8c-0.1-0.5,0.3-1.1,0.8-1.1l13.9-2.2c0.5-0.1,1.1,0.3,1.1,0.8c0.1,0.5-0.3,1.1-0.8,1.1
			l-13.9,2.2C25.2,50.6,25.2,50.6,25.1,50.6z"/>
	</g>
	<g id="XMLID_288_">
		<path d="M25.1,54.6c-0.5,0-0.9-0.3-1-0.8c-0.1-0.5,0.3-1.1,0.8-1.1l13.9-2.2c0.5-0.1,1.1,0.3,1.1,0.8c0.1,0.5-0.3,1.1-0.8,1.1
			l-13.9,2.2C25.2,54.6,25.2,54.6,25.1,54.6z"/>
	</g>
	<g id="XMLID_287_">
		<path d="M31.7,37.4c-0.2,0-0.5-0.1-0.7-0.2l-6.5-5.7c-0.4-0.4-0.5-1-0.1-1.4c0.4-0.4,1-0.5,1.4-0.1l5.7,4.9l6.7-10.4
			c0.3-0.5,0.9-0.6,1.4-0.3c0.5,0.3,0.6,0.9,0.3,1.4l-7.3,11.4c-0.2,0.2-0.4,0.4-0.7,0.4C31.8,37.4,31.7,37.4,31.7,37.4z"/>
	</g>
	<g id="XMLID_286_">
		<path d="M31.4,59.3c-3.9,0-4.9-5.6-4.9-5.9c-0.1-0.5,0.3-1.1,0.8-1.1c0.5-0.1,1.1,0.3,1.1,0.8c0,0,0.7,4.2,2.9,4.2
			c2.5,0,4-2.8,4.2-5.6c0-0.5,0.5-1,1.1-0.9c0.5,0,1,0.5,0.9,1.1C37.3,55.5,35.1,59.3,31.4,59.3z"/>
	</g>
	<g id="XMLID_285_">
		<path d="M55.3,31.7h-6.6c-0.6,0-1-0.4-1-1s0.4-1,1-1h6.6c0.6,0,1,0.4,1,1S55.8,31.7,55.3,31.7z"/>
	</g>
	<g id="XMLID_284_">
		<path d="M32.1,13.3c-0.6,0-1-0.4-1-1V5.8c0-0.6,0.4-1,1-1c0.6,0,1,0.4,1,1v6.6C33.1,12.9,32.6,13.3,32.1,13.3z"/>
	</g>
	<g id="XMLID_283_">
		<path d="M15.3,31.7H8.7c-0.6,0-1-0.4-1-1s0.4-1,1-1h6.6c0.6,0,1,0.4,1,1S15.9,31.7,15.3,31.7z"/>
	</g>
	<g id="XMLID_282_">
		<path d="M43.5,18c-0.3,0-0.5-0.1-0.7-0.3c-0.4-0.4-0.4-1,0-1.4l4.7-4.7c0.4-0.4,1-0.4,1.4,0s0.4,1,0,1.4l-4.7,4.7
			C44,17.9,43.7,18,43.5,18z"/>
	</g>
	<g id="XMLID_280_">
		<path d="M20.3,18.4c-0.3,0-0.5-0.1-0.7-0.3L15,13.5c-0.4-0.4-0.4-1,0-1.4s1-0.4,1.4,0l4.7,4.7c0.4,0.4,0.4,1,0,1.4
			C20.8,18.3,20.6,18.4,20.3,18.4z"/>
	</g>
</g>
</svg>
