<svg version="1.1" id="ic_logotype" class="trend_item_icon" xmlns="http://www.w3.org/2000/svg" x="0px" y="0px"
	 viewBox="0 0 64 64" style="enable-background:new 0 0 64 64;" xml:space="preserve">
<g>
	<path d="M10.8,25.4c2.1,0,2.9,1.2,2.9,3.2v1.6c0,2.1-1,3.2-3.1,3.2H9.4v5.2H8V25.4H10.8z M10.7,32.1c1.1,0,1.6-0.5,1.6-1.8v-1.7
		c0-1.2-0.4-1.8-1.5-1.8H9.4v5.3H10.7z"/>
	<path id="XMLID_8_" d="M22.7,35.5c0,1.2,0.5,1.9,1.5,1.9c1.1,0,1.5-0.7,1.5-1.9v-6.1h1.4v6c0,2-0.9,3.3-2.9,3.3
		c-2,0-2.9-1.3-2.9-3.3v-6h1.4V35.5z"/>
	<path id="XMLID_7_" d="M16.4,35.3c0,1.2,0.5,1.9,1.5,1.9h2.2v1.4h-2.3c-2,0-2.9-1.3-2.9-3.3v-9.8h1.4V35.3z"/>
	<path id="XMLID_6_" d="M41.5,28.7c0,4-4.5,5.4-4.5,8.4v0.2h4.3v1.3h-5.8v-1.1c0-4.2,4.5-5.1,4.5-8.8c0-1.4-0.5-2.1-1.5-2.1
		c-1.1,0-1.5,0.8-1.5,1.9v2.2h-1.4v-2.1c0-2,0.9-3.3,2.9-3.3C40.6,25.4,41.5,26.7,41.5,28.7"/>
	<path id="XMLID_5_" d="M44.3,30.8c0.4-0.7,1.1-1.1,2-1.1c1.7,0,2.4,1.2,2.4,3.1v2.6c0,2-1,3.3-3,3.3c-2,0-2.9-1.3-2.9-3.3v-0.9h1.4
		v1c0,1.2,0.5,1.9,1.5,1.9c1.1,0,1.5-0.7,1.5-1.9v-2.6c0-1.2-0.5-1.9-1.5-1.9c-0.8,0-1.4,0.5-1.5,1.4v0.3h-1.4l0.4-7.3h5.2v1.3h-3.9
		L44.3,30.8z"/>
	<path d="M56,28.6v0.2h-1.4v-0.3c0-1.2-0.5-1.9-1.6-1.9c-1.1,0-1.6,0.7-1.6,2.1v2.9c0.4-0.9,1.1-1.4,2.1-1.4c1.7,0,2.4,1.2,2.4,3.1
		v2c0,2-1,3.3-3,3.3c-2,0-3-1.3-3-3.3v-6.7c0-2.1,0.9-3.4,3-3.4C55.1,25.3,56,26.6,56,28.6 M51.5,33.5v2c0,1.2,0.5,1.9,1.6,1.9
		c1.1,0,1.6-0.7,1.6-1.9v-2c0-1.2-0.5-1.9-1.6-1.9C52,31.6,51.5,32.3,51.5,33.5"/>
	<path id="XMLID_2_" d="M31,37.3c1.2,0,1.9-0.5,1.9-1.5c0-1.1-0.7-1.5-1.9-1.5h-1.7v-1.4h1.6c2,0,3.3,0.9,3.3,2.9
		c0,2-1.3,2.9-3.3,2.9h-2.6v-1.4H31z"/>
	<path id="XMLID_1_" d="M31.6,30.9c-1.2,0-1.9,0.5-1.9,1.5c0,1,0.7,1.5,1.9,1.5h1.7v1.4h-1.6c-2,0-3.3-0.9-3.3-2.9
		c0-2,1.3-2.9,3.3-2.9h2.6v1.4H31.6z"/>
</g>
</svg>
