<svg version="1.1" class="trend_item_icon" xmlns="http://www.w3.org/2000/svg" x="0px" y="0px"
	 viewBox="-217 219 64 64" style="enable-background:new -217 219 64 64;" xml:space="preserve">
<g>
	<path d="M-177.5,227.5h-15.1c-3.3,0-6,2.7-6,6v35.1c0,3.3,2.7,6,6,6h15.1c3.3,0,6-2.7,6-6v-35.1
		C-171.5,230.2-174.1,227.5-177.5,227.5z M-192.5,229.5h15.1c2.2,0,4,1.8,4,4v3.5h-23.1v-3.5C-196.5,231.3-194.8,229.5-192.5,229.5z
		 M-173.5,238v25.2h-23.1V238H-173.5z M-177.5,272.5h-15.1c-2.2,0-4-1.8-4-4v-4.3h23.1v4.3C-173.5,270.7-175.2,272.5-177.5,272.5z"
		/>
	<path d="M-187.2,233.6h4.4c0.3,0,0.5-0.2,0.5-0.5s-0.2-0.5-0.5-0.5h-4.4c-0.3,0-0.5,0.2-0.5,0.5S-187.5,233.6-187.2,233.6z"/>
	<path d="M-185,265.9c-1.5,0-2.7,1.2-2.7,2.7s1.2,2.7,2.7,2.7s2.7-1.2,2.7-2.7S-183.5,265.9-185,265.9z M-185,270.3
		c-0.9,0-1.7-0.8-1.7-1.7s0.8-1.7,1.7-1.7c0.9,0,1.7,0.8,1.7,1.7S-184.1,270.3-185,270.3z"/>
</g>
</svg>
