<svg version="1.1" class="trend_item_icon" xmlns="http://www.w3.org/2000/svg" x="0px" y="0px"
	 viewBox="0 0 64 64" style="enable-background:new 0 0 64 64;" xml:space="preserve">
<g id="XMLID_1_">
	<path id="XMLID_30_" d="M11,5.5v16.2v2v15v2v17.8h42V23.7v-2V5.5H11z M13,56.5V40.7h38v15.8H13z M51,38.7H13v-15h38V38.7z M13,21.7
		V7.5h38v14.2H13z"/>
	<g id="XMLID_20_">
		<path id="XMLID_15_" d="M44.5,17c-1.9,0-3.5-1.6-3.5-3.5s1.6-3.5,3.5-3.5s3.5,1.6,3.5,3.5S46.4,17,44.5,17z M44.5,12
			c-0.8,0-1.5,0.7-1.5,1.5s0.7,1.5,1.5,1.5s1.5-0.7,1.5-1.5S45.3,12,44.5,12z"/>
	</g>
	<g id="XMLID_19_">
		<path id="XMLID_12_" d="M44.5,35.5c-1.9,0-3.5-1.6-3.5-3.5s1.6-3.5,3.5-3.5S48,30.1,48,32S46.4,35.5,44.5,35.5z M44.5,30.5
			c-0.8,0-1.5,0.7-1.5,1.5s0.7,1.5,1.5,1.5S46,32.8,46,32S45.3,30.5,44.5,30.5z"/>
	</g>
	<g id="XMLID_18_">
		<path id="XMLID_9_" d="M44.5,52.5c-1.9,0-3.5-1.6-3.5-3.5s1.6-3.5,3.5-3.5S48,47.1,48,49S46.4,52.5,44.5,52.5z M44.5,47.5
			c-0.8,0-1.5,0.7-1.5,1.5s0.7,1.5,1.5,1.5S46,49.8,46,49S45.3,47.5,44.5,47.5z"/>
	</g>
	<g id="XMLID_16_">
		<rect id="XMLID_8_" x="18.3" y="12.5" width="20" height="2"/>
	</g>
	<g id="XMLID_5_">
		<rect id="XMLID_7_" x="18.3" y="31.5" width="20" height="2"/>
	</g>
	<g id="XMLID_3_">
		<rect id="XMLID_6_" x="18.3" y="48.5" width="20" height="2"/>
	</g>
</g>
</svg>
