<svg version="1.1" class="trend_item_icon" xmlns="http://www.w3.org/2000/svg" x="0px" y="0px"
	 viewBox="0 0 64 64" style="enable-background:new 0 0 64 64;" xml:space="preserve">
<g id="XMLID_5_">
	<path id="XMLID_8_" d="M32,6.9c2.9,2.4,9.9,7.2,19.4,7.8v23.8c0,10.7-8.7,19.4-19.4,19.4s-19.4-8.7-19.4-19.4V14.7
		C22.1,14,29.1,9.3,32,6.9 M32,4c0,0-8.6,8.6-21.5,8.6c0,10.5,0,25.8,0,25.8C10.5,50.4,20.1,60,32,60s21.5-9.6,21.5-21.5
		c0,0,0-19.1,0-25.8C40.5,12.6,32,4,32,4L32,4z"/>
	<g id="XMLID_6_">
		<rect id="XMLID_1_" x="30.9" y="11.5" width="2.2" height="42"/>
	</g>
</g>
</svg>
