<svg version="1.1" class="trend_item_icon" xmlns="http://www.w3.org/2000/svg" x="0px" y="0px"
	 viewBox="0 0 64 64" style="enable-background:new 0 0 64 64;" xml:space="preserve">
<path id="XMLID_20_" d="M51.9,13.7c-3.2,0-5.8,2.6-5.8,5.8c0,1.6,0.6,3,1.6,4.1L40,33.9c-0.9-0.5-1.8-0.8-2.9-0.8
	c-1.6,0-3.1,0.7-4.1,1.7l-3.9-3.3c0.5-0.9,0.8-1.9,0.8-3c0-3.2-2.6-5.8-5.8-5.8c-3.2,0-5.8,2.6-5.8,5.8c0,1.6,0.7,3.1,1.7,4.1
	l-5,6.6c-0.8-0.5-1.8-0.7-2.8-0.7c-3.2,0-5.8,2.6-5.8,5.8s2.6,5.8,5.8,5.8s5.8-2.6,5.8-5.8c0-1.5-0.6-2.8-1.5-3.9l5.1-6.7
	c0.8,0.4,1.6,0.6,2.5,0.6c1.4,0,2.7-0.5,3.8-1.4l4,3.4c-0.4,0.8-0.6,1.6-0.6,2.5c0,3.2,2.6,5.8,5.8,5.8s5.8-2.6,5.8-5.8
	c0-1.4-0.5-2.8-1.4-3.8l7.7-10.4c0.8,0.4,1.7,0.6,2.6,0.6c3.2,0,5.8-2.6,5.8-5.8C57.8,16.3,55.1,13.7,51.9,13.7z M12.1,48.3
	c-2.1,0-3.8-1.7-3.8-3.8s1.7-3.8,3.8-3.8s3.8,1.7,3.8,3.8S14.2,48.3,12.1,48.3z M24.1,32.4c-2.1,0-3.8-1.7-3.8-3.8s1.7-3.8,3.8-3.8
	s3.8,1.7,3.8,3.8S26.2,32.4,24.1,32.4z M37.1,42.8c-2.1,0-3.8-1.7-3.8-3.8s1.7-3.8,3.8-3.8s3.8,1.7,3.8,3.8S39.2,42.8,37.1,42.8z
	 M51.9,23.4c-2.1,0-3.8-1.7-3.8-3.8s1.7-3.8,3.8-3.8s3.8,1.7,3.8,3.8S54,23.4,51.9,23.4z"/>
</svg>
