<svg version="1.1" class="trend_item_icon" xmlns="http://www.w3.org/2000/svg" x="0px" y="0px"
	 viewBox="0 0 64 64" style="enable-background:new 0 0 64 64;" xml:space="preserve">
<g id="XMLID_4_">
	<path id="XMLID_5_" d="M42.5,9.3c1.1,0,2.1,0.1,3.2,0.4L39,16.3c-2.4,2.4-2.4,6.3,0,8.7c1.2,1.2,2.7,1.8,4.3,1.8s3.2-0.6,4.3-1.8
		l6.6-6.6c0.3,1,0.4,2.1,0.4,3.2c0,6.8-5.5,12.3-12.3,12.3c-1.5,0-3-0.3-4.4-0.8l-1.2-0.5l-0.9,0.9l-21,21l-5.3-5.3l21-21l0.9-0.9
		l-0.5-1.2c-0.6-1.4-0.8-2.9-0.8-4.4C30.2,14.8,35.7,9.3,42.5,9.3 M42.5,7.2c-7.9,0-14.3,6.4-14.3,14.3c0,1.8,0.4,3.6,1,5.2
		L6.7,49.1l8.2,8.2l22.4-22.4c1.6,0.6,3.3,1,5.2,1c7.9,0,14.3-6.4,14.3-14.3c0-2.5-0.6-4.8-1.7-6.8l-8.8,8.8
		c-0.8,0.8-1.8,1.2-2.9,1.2s-2.1-0.4-2.9-1.2c-1.6-1.6-1.6-4.2,0-5.8L49.3,9C47.3,7.8,44.9,7.2,42.5,7.2L42.5,7.2z"/>
</g>
</svg>
