<svg version="1.1" id="logo" xmlns="http://www.w3.org/2000/svg" x="0px" y="0px"
	 viewBox="0 0 500 500" style="enable-background:new 0 0 500 500;" xml:space="preserve">
<path id="XMLID_760_" class="logo_shape" d="M385,206.3c4.6,13.1,17,22.5,31.6,22.5c18.5,0,33.5-15,33.5-33.5s-15-33.5-33.5-33.5
	c-14.3,0-26.5,9-31.3,21.6h-45.2v-45.1c12.6-4.8,21.6-17,21.6-31.3c0-18.5-15-33.5-33.5-33.5c-18.5,0-33.5,15-33.5,33.5
	c0,14.6,9.4,27.1,22.5,31.6v44.8H200.4v134.3h76.5v88.5H106.7v-88.5h76.5V183.4h-68.1c-4.8-12.6-17-21.6-31.3-21.6
	c-18.5,0-33.5,15-33.5,33.5s15,33.5,33.5,33.5c14.6,0,27.1-9.4,31.6-22.5h44.9v88.5H83.8v134.3h216V294.8h-76.5v-88.5h94v222.8h99.4
	v-135h-76.5v-87.8H385z M393.7,317.7v88.5h-53.6v-88.5H393.7z"/>
</svg>
